# xmcd
# 
# Track frame offsets:
#     150
#     19744
#     32930
#     48479
#     68653
#     87987
#     107556
#     132058
#     145806
#     158737
#     182826
#     200849
#     220193
#     238079
#     254689
# 
# Disc length: 3635
# 
# Revision: 0
# Processed by: cddbd v1.5.2PL0 Copyright (c) Steve Scherf et al.
# Submitted via: fre:ac v1.0.31
# 
DISCID=da0e310f
DTITLE=Hugh Laurie - Didn't It Rain
DYEAR=2013
DGENRE=Blues
TTITLE0=The St. Louis Blues
TTITLE1=Junkers Blues
TTITLE2=Kiss Of Fire
TTITLE3=Vicksburg Blues
TTITLE4=The Weed Smokers's Dream
TTITLE5=Wild Honey
TTITLE6=Send Me To The 'Lectric Chair
TTITLE7=Evenin'
TTITLE8=Didn't It Rain
TTITLE9=Careless Love
TTITLE10=One For My Baby
TTITLE11=I Hate A Man Like You
TTITLE12=Changes
TTITLE13=Unchain My Heart
TTITLE14=unbekannt
EXTD=
EXTT0=
EXTT1=
EXTT2=
EXTT3=
EXTT4=
EXTT5=
EXTT6=
EXTT7=
EXTT8=
EXTT9=
EXTT10=
EXTT11=
EXTT12=
EXTT13=
EXTT14=
PLAYORDER=
